<svg width="18" height="19" viewBox="0 0 18 19" fill="none" xmlns="http://www.w3.org/2000/svg">
<path d="M8.99316 15.3772C8.13639 15.3772 7.3252 15.2724 6.55957 15.0627C5.79395 14.8577 5.08529 14.5842 4.43359 14.2424C3.7819 13.9006 3.19629 13.5247 2.67676 13.1145C2.15723 12.6998 1.71289 12.2851 1.34375 11.8704C0.979167 11.4511 0.698893 11.066 0.50293 10.7151C0.311523 10.3642 0.21582 10.0793 0.21582 9.8606C0.21582 9.64185 0.313802 9.35701 0.509766 9.0061C0.705729 8.65063 0.986003 8.26554 1.35059 7.85083C1.71517 7.43612 2.15723 7.02368 2.67676 6.61353C3.19629 6.19881 3.7819 5.82056 4.43359 5.47876C5.08984 5.13241 5.80078 4.85669 6.56641 4.65161C7.33203 4.44653 8.14095 4.34399 8.99316 4.34399C9.86361 4.34399 10.6839 4.44653 11.4541 4.65161C12.2243 4.85669 12.9352 5.13241 13.5869 5.47876C14.2386 5.82056 14.8219 6.19881 15.3369 6.61353C15.8519 7.02368 16.2917 7.43612 16.6562 7.85083C17.0208 8.26554 17.2988 8.65063 17.4902 9.0061C17.6816 9.35701 17.7773 9.64185 17.7773 9.8606C17.7773 10.0793 17.6816 10.3642 17.4902 10.7151C17.2988 11.066 17.0208 11.4511 16.6562 11.8704C16.2962 12.2851 15.8564 12.6998 15.3369 13.1145C14.8219 13.5247 14.2386 13.9006 13.5869 14.2424C12.9398 14.5842 12.2288 14.8577 11.4541 15.0627C10.6839 15.2724 9.86361 15.3772 8.99316 15.3772ZM8.99316 13.4426C9.65397 13.4426 10.2555 13.2808 10.7979 12.9573C11.3402 12.6337 11.7708 12.203 12.0898 11.6653C12.4134 11.123 12.5752 10.5214 12.5752 9.8606C12.5752 9.19979 12.4134 8.6005 12.0898 8.06274C11.7708 7.52043 11.3402 7.08748 10.7979 6.76392C10.2555 6.44035 9.65397 6.27856 8.99316 6.27856C8.34147 6.27856 7.74447 6.44035 7.20215 6.76392C6.65983 7.08748 6.22689 7.52043 5.90332 8.06274C5.57975 8.6005 5.41797 9.19979 5.41797 9.8606C5.41797 10.5214 5.57975 11.123 5.90332 11.6653C6.22689 12.203 6.65983 12.6337 7.20215 12.9573C7.74447 13.2808 8.34147 13.4426 8.99316 13.4426ZM8.99316 11.1868C8.62858 11.1868 8.31641 11.0569 8.05664 10.7971C7.80143 10.5374 7.67383 10.2252 7.67383 9.8606C7.67383 9.49601 7.80143 9.18384 8.05664 8.92407C8.31641 8.66431 8.62858 8.53442 8.99316 8.53442C9.36686 8.53442 9.68132 8.66431 9.93652 8.92407C10.1917 9.18384 10.3193 9.49601 10.3193 9.8606C10.3193 10.2252 10.1917 10.5374 9.93652 10.7971C9.68132 11.0569 9.36686 11.1868 8.99316 11.1868Z" fill="#646F7C"/>
</svg>
