<svg width="56" height="56" viewBox="0 0 56 56" fill="none" xmlns="http://www.w3.org/2000/svg">
<rect width="56" height="56" rx="28" fill="#111111"/>
<path d="M20.916 34.2285H35.0928C35.4678 34.2285 35.7695 34.1172 35.998 33.8945C36.2266 33.6719 36.3408 33.3672 36.3408 32.9805V31.6357L32.6143 28.1904C32.4209 28.0088 32.21 27.874 31.9814 27.7861C31.7529 27.6924 31.5244 27.6455 31.2959 27.6455C30.8154 27.6455 30.373 27.8242 29.9688 28.1816L26.0225 31.6885L24.4316 30.2646C24.0684 29.9307 23.6729 29.7637 23.2451 29.7637C23.0576 29.7637 22.8672 29.8047 22.6738 29.8867C22.4863 29.9688 22.3018 30.0889 22.1201 30.2471L19.6768 32.3828V32.9629C19.6768 33.3613 19.7852 33.6719 20.002 33.8945C20.2246 34.1172 20.5293 34.2285 20.916 34.2285ZM24.5459 28.1904C24.915 28.1904 25.2549 28.0967 25.5654 27.9092C25.8818 27.7217 26.1309 27.4727 26.3125 27.1621C26.5 26.8516 26.5938 26.5059 26.5938 26.125C26.5938 25.75 26.5 25.4072 26.3125 25.0967C26.1309 24.7803 25.8818 24.5283 25.5654 24.3408C25.2549 24.1533 24.915 24.0596 24.5459 24.0596C24.1592 24.0596 23.8105 24.1533 23.5 24.3408C23.1895 24.5283 22.9404 24.7803 22.7529 25.0967C22.5713 25.4072 22.4805 25.75 22.4805 26.125C22.4805 26.5059 22.5713 26.8516 22.7529 27.1621C22.9404 27.4727 23.1895 27.7217 23.5 27.9092C23.8105 28.0967 24.1592 28.1904 24.5459 28.1904ZM20.8457 35.7139C19.9668 35.7139 19.3018 35.4912 18.8506 35.0459C18.3994 34.6064 18.1738 33.9502 18.1738 33.0771V22.9346C18.1738 22.0615 18.3994 21.4053 18.8506 20.9658C19.3018 20.5205 19.9668 20.2979 20.8457 20.2979H35.1543C36.0449 20.2979 36.7129 20.5205 37.1582 20.9658C37.6035 21.4053 37.8262 22.0615 37.8262 22.9346V33.0771C37.8262 33.9502 37.6035 34.6064 37.1582 35.0459C36.7129 35.4912 36.0449 35.7139 35.1543 35.7139H20.8457Z" fill="white"/>
</svg>
