<svg width="56" height="56" viewBox="0 0 56 56" fill="none" xmlns="http://www.w3.org/2000/svg">
<rect width="56" height="56" rx="28" fill="#3E57FF"/>
<path d="M20.5469 34.3691V26.2041C20.5469 25.3252 20.7725 24.666 21.2236 24.2266C21.6748 23.7812 22.3398 23.5586 23.2188 23.5586H32.7725C33.6631 23.5586 34.3311 23.7812 34.7764 24.2266C35.2217 24.6719 35.4443 25.3311 35.4443 26.2041V34.3691C35.4443 35.2422 35.2217 35.9014 34.7764 36.3467C34.3311 36.792 33.6631 37.0146 32.7725 37.0146H23.2188C22.3398 37.0146 21.6748 36.792 21.2236 36.3467C20.7725 35.9072 20.5469 35.248 20.5469 34.3691ZM28 30.4053C28.1934 30.4053 28.3604 30.335 28.501 30.1943C28.6475 30.0537 28.7207 29.8896 28.7207 29.7021V21.2998L28.6592 20.0693L29.1074 20.5703L30.3379 21.8887C30.4668 22.0293 30.6279 22.0996 30.8213 22.0996C31.0088 22.0996 31.1641 22.0439 31.2871 21.9326C31.4102 21.8154 31.4717 21.666 31.4717 21.4844C31.4717 21.3086 31.4043 21.1504 31.2695 21.0098L28.5273 18.373C28.4395 18.2852 28.3516 18.2236 28.2637 18.1885C28.1816 18.1475 28.0938 18.127 28 18.127C27.9062 18.127 27.8154 18.1475 27.7275 18.1885C27.6396 18.2236 27.5518 18.2852 27.4639 18.373L24.7217 21.0098C24.5811 21.1504 24.5107 21.3086 24.5107 21.4844C24.5107 21.666 24.5723 21.8154 24.6953 21.9326C24.8242 22.0439 24.9795 22.0996 25.1611 22.0996C25.3604 22.0996 25.5244 22.0293 25.6533 21.8887L26.8838 20.5703L27.332 20.0605L27.2793 21.2998V29.7021C27.2793 29.8896 27.3496 30.0537 27.4902 30.1943C27.6309 30.335 27.8008 30.4053 28 30.4053Z" fill="white"/>
</svg>
