<svg width="18" height="19" viewBox="0 0 18 19" fill="none" xmlns="http://www.w3.org/2000/svg">
<path d="M8.99316 4.34399C9.86361 4.34399 10.6839 4.44653 11.4541 4.65161C12.2243 4.85669 12.9352 5.13241 13.5869 5.47876C14.2386 5.82056 14.8219 6.19881 15.3369 6.61353C15.8519 7.02368 16.2917 7.43612 16.6562 7.85083C17.0208 8.26554 17.2988 8.65063 17.4902 9.0061C17.6816 9.35701 17.7773 9.64185 17.7773 9.8606C17.7773 10.1067 17.6543 10.4394 17.4082 10.8586C17.1621 11.2734 16.8089 11.7222 16.3486 12.2053C15.8883 12.6884 15.3346 13.1464 14.6875 13.5793L12.2949 11.1936C12.3861 10.9931 12.4544 10.7812 12.5 10.5579C12.5501 10.33 12.5752 10.0976 12.5752 9.8606C12.5752 9.19979 12.4134 8.6005 12.0898 8.06274C11.7708 7.52043 11.3402 7.08748 10.7979 6.76392C10.2555 6.44035 9.65397 6.27856 8.99316 6.27856C8.76074 6.27856 8.5306 6.30363 8.30273 6.35376C8.07943 6.39933 7.86523 6.46769 7.66016 6.55884L5.95117 4.84302C6.41602 4.69263 6.90365 4.57186 7.41406 4.48071C7.92448 4.38957 8.45085 4.34399 8.99316 4.34399ZM11.1123 10.0178L8.84277 7.74146C9.1709 7.705 9.47852 7.74601 9.76562 7.8645C10.0573 7.98299 10.3102 8.15389 10.5244 8.3772C10.7386 8.6005 10.8981 8.85571 11.0029 9.14282C11.1123 9.42537 11.1488 9.71704 11.1123 10.0178ZM8.99316 11.9934C8.60124 11.9934 8.24349 11.8977 7.91992 11.7063C7.60091 11.5149 7.34342 11.2574 7.14746 10.9338C6.95605 10.6103 6.86035 10.2525 6.86035 9.8606C6.86035 9.73299 6.87858 9.59399 6.91504 9.4436L9.41699 11.9524C9.27572 11.9797 9.13444 11.9934 8.99316 11.9934ZM8.99316 15.3772C8.13639 15.3772 7.3252 15.2724 6.55957 15.0627C5.79395 14.8577 5.08529 14.5842 4.43359 14.2424C3.7819 13.9006 3.19629 13.5247 2.67676 13.1145C2.15723 12.6998 1.71289 12.2851 1.34375 11.8704C0.979167 11.4511 0.698893 11.066 0.50293 10.7151C0.311523 10.3642 0.21582 10.0793 0.21582 9.8606C0.21582 9.60539 0.345703 9.26131 0.605469 8.82837C0.869792 8.39543 1.24577 7.93058 1.7334 7.43384C2.22559 6.93709 2.8112 6.46997 3.49023 6.03247L5.78027 8.32251C5.66634 8.55037 5.57747 8.79419 5.51367 9.05396C5.44987 9.31372 5.41797 9.5826 5.41797 9.8606C5.41797 10.5214 5.57975 11.123 5.90332 11.6653C6.22689 12.203 6.65983 12.6337 7.20215 12.9573C7.74447 13.2808 8.34147 13.4426 8.99316 13.4426C9.27116 13.4426 9.54004 13.4107 9.7998 13.3469C10.0641 13.2831 10.3125 13.192 10.5449 13.0735L12.2744 14.803C11.7777 14.9807 11.2559 15.1197 10.709 15.22C10.1621 15.3248 9.59017 15.3772 8.99316 15.3772ZM14.0791 15.5276L3.18945 4.64478C3.08919 4.54907 3.03906 4.43058 3.03906 4.28931C3.03906 4.14347 3.08919 4.02498 3.18945 3.93384C3.28516 3.82902 3.40365 3.77661 3.54492 3.77661C3.6862 3.77661 3.80924 3.82902 3.91406 3.93384L14.7969 14.8098C14.8971 14.9101 14.9473 15.0263 14.9473 15.1584C14.9518 15.2952 14.9017 15.4182 14.7969 15.5276C14.6921 15.6324 14.5713 15.6825 14.4346 15.678C14.2979 15.678 14.1794 15.6278 14.0791 15.5276Z" fill="#646F7C"/>
</svg>
